<svg width="402" height="132" viewBox="0 0 402 132" fill="none" xmlns="http://www.w3.org/2000/svg">
<g clip-path="url(#clip0_812_447)">
<path d="M135.987 86.4688L151.636 86.4899L150.62 48.0953L134.887 48.0724L124.411 66.419C123.129 68.651 122.212 70.6587 122.212 70.6587H122.043C122.043 70.6587 121.707 68.6492 121.07 66.3581L115.724 48.0476L92.0831 48.0521L96.5894 59.3267C96.6397 59.4538 96.6821 59.5792 96.7289 59.7046L89.4591 86.4087L103.016 86.4264C103.459 84.1944 107.348 67.6815 107.348 67.6815C107.915 65.1141 108.11 62.8812 108.11 62.8812H108.193C108.193 62.8812 108.586 65.1141 109.44 67.6842C109.44 67.6842 114.749 84.265 115.651 86.4423L123.268 86.452C124.923 83.888 134.127 67.7169 134.127 67.7169C135.518 65.2624 136.479 62.921 136.479 62.921H136.646C136.646 62.921 136.264 65.318 136.22 67.7186C136.22 67.7186 136.054 84.5714 135.987 86.4688Z" fill="#DA291C"/>
<path d="M176.319 87.0807C162.678 87.0622 155.708 83.8722 156.523 77.2885C157.479 69.5887 169.549 67.4283 183.042 66.608L183.187 65.4373C183.484 63.0385 180.973 62.3648 176.621 62.3604C172.27 62.3542 167.472 63.2389 164.175 64.1836L161.65 58.2099C165.199 57.2652 171.651 55.879 180.521 55.8914C191.566 55.9055 198.8 58.9842 197.741 67.521L195.598 84.8169C191.582 86.1519 184.855 87.0922 176.319 87.0807ZM182.454 71.351C176.301 71.6785 171.911 72.6762 171.392 76.8611C171.013 79.931 173.439 81.2721 177.792 81.2801C179.212 81.2809 180.399 81.1706 181.271 80.8933L182.454 71.351Z" fill="#DA291C"/>
<path d="M218.827 87.1372C208.701 87.1231 204.526 82.9894 205.171 77.7997L206.954 63.4049L205.618 63.3978L202.31 56.4794L207.811 56.4865L208.572 50.3477L224.805 47.6911L223.712 56.5077L230.239 56.5156L229.382 63.434L222.854 63.4252L221.179 76.9274C220.903 79.1585 221.972 79.999 224.314 80.0016C225.486 80.0034 226.085 79.8921 227.381 79.5584L226.572 86.0866C225.345 86.5307 222.508 87.1416 218.827 87.1372Z" fill="#DA291C"/>
<path d="M250.542 87.1804C236.9 87.1619 229.93 83.9702 230.747 77.3873C231.701 69.6876 243.772 67.5253 257.264 66.7078L257.41 65.5344C257.707 63.1373 255.194 62.4619 250.844 62.4584C246.493 62.4522 241.695 63.3386 238.397 64.2833L235.874 58.3079C239.423 57.3632 245.872 55.9788 254.742 55.9894C265.789 56.0035 273.023 59.0822 271.964 67.6189L269.821 84.9176C265.805 86.2499 259.078 87.1919 250.542 87.1804ZM256.675 71.4516C250.526 71.7756 246.134 72.7751 245.615 76.9618C245.234 80.029 247.662 81.3727 252.013 81.378C253.437 81.3798 254.622 81.2694 255.492 80.9922L256.675 71.4516Z" fill="#DA291C"/>
<path d="M298.157 87.2414C284.182 87.2237 275.43 82.1894 276.739 71.6432C277.906 62.2147 287.015 56.2552 298.565 56.2711C301.326 56.2728 303.566 56.4441 304.868 56.7257L306.584 42.8863L322.484 42.9101L317.27 84.9785C312.395 86.4794 306.776 87.2537 298.157 87.2414ZM304.178 62.3057C303.521 62.1918 302.698 62.0814 301.694 62.0788C296.004 62.0726 293.259 65.3031 292.512 71.3315C291.738 77.5798 293.875 80.5967 299.148 80.6037C300.319 80.6037 301.245 80.5508 301.943 80.3274L304.178 62.3057Z" fill="#DA291C"/>
<path d="M343.261 87.3032C329.788 87.2864 323.073 80.6894 324.194 71.6521C325.306 62.6677 333.739 56.0945 347.129 56.113C360.684 56.1307 367.401 62.7242 366.287 71.7077C365.165 80.7459 356.734 87.3226 343.261 87.3032ZM346.311 62.695C341.96 62.6897 340.569 66.4836 339.946 71.5037C339.317 76.583 339.879 80.1561 344.147 80.1605C348.498 80.1676 349.862 76.5963 350.489 71.5187C351.111 66.4977 350.664 62.7021 346.311 62.695Z" fill="#DA291C"/>
<path d="M396.327 63.6539C393.513 62.703 390.677 62.6421 388.521 63.1418L385.589 86.7991L369.688 86.7779L373.203 58.4342C378.69 56.7117 387.169 55.8314 400 56.2932L396.327 63.6539Z" fill="#DA291C"/>
<path d="M22.5263 80.8343C27.8837 65.0622 36.7992 54.0003 46.8987 52.6513C51.8553 51.9873 56.532 53.7558 60.6446 57.411C53.9292 42.9014 44.3242 34.5951 33.657 36.1499C18.6053 38.3492 5.6841 59.4946 0 87.8992C6.33568 84.6431 14.0178 82.1966 22.5263 80.8343Z" fill="black"/>
<path d="M43.9968 66.0571C50.1356 66.7696 55.4948 73.0188 58.4039 81.733C62.8723 82.698 67.0625 83.972 70.8925 85.51C67.9728 70.5007 60.3825 59.0955 51.4617 57.9609C45.4501 57.2007 40.0343 61.2727 36.2502 68.3924C38.5679 66.5983 41.2051 65.7296 43.9968 66.0571Z" fill="#DA291C"/>
<path d="M68.7434 89.9386C61.561 88.1031 53.689 86.8741 45.3951 86.4273C27.9296 85.4862 11.9244 88.1543 0.15271 93.2292L1.12037 93.2822C11.1545 90.6573 20.1371 90.2371 32.7308 90.9151C41.6145 91.3937 51.1648 93.6698 58.7472 95.7296C61.1425 94.0062 65.6347 90.9363 68.7434 89.9386Z" fill="#75787B"/>
</g>
<defs>
<clipPath id="clip0_812_447">
<rect width="400" height="59.7661" fill="white" transform="translate(0 35.9635)"/>
</clipPath>
</defs>
</svg>
